<svg width="1114" height="701" viewBox="0 0 1114 701" fill="none" xmlns="http://www.w3.org/2000/svg">
<path d="M984.058 558.564C993.895 558.434 1003.64 560.49 1012.62 564.591C1022.93 569.611 1031.46 577.744 1037.06 587.879C1042.65 598.015 1045.04 609.659 1043.89 621.224C1042.04 639.634 1034.54 656.986 1022.46 670.824C1010.37 684.662 994.318 694.285 976.561 698.332C963.466 701.584 949.737 701.031 936.936 696.735C925.014 692.582 914.83 684.439 908.048 673.638C901.265 662.837 898.286 650.016 899.596 637.27C901.705 618.077 909.906 600.105 922.955 586.074C936.005 572.044 953.194 562.718 971.92 559.508C975.847 559.072 979.988 559.072 984.058 558.564Z" fill="#ED2426"/>
<path d="M565.175 618.32C566.528 615.005 567.054 611.401 566.707 607.83C566.361 604.258 565.151 600.829 563.187 597.847C561.223 594.865 558.565 592.423 555.449 590.738C552.333 589.053 548.856 588.177 545.327 588.188C532.38 586.974 519.328 588.609 507.058 592.98C504.559 593.924 501.917 594.722 498.847 595.812C496.785 587.699 495.282 579.45 494.349 571.125C503.953 566.217 514.232 562.815 524.836 561.033C539.349 557.986 554.347 558.258 568.745 561.831C576.708 563.301 583.917 567.551 589.13 573.846C594.344 580.142 597.234 588.089 597.303 596.32C597.626 605.319 596.98 614.328 595.375 623.184C591.663 646.927 587.308 670.524 583.238 694.194C583.238 695.283 582.524 696.372 582.096 697.751H552.252L554.465 682.068L548.397 686.86C540.899 692.929 532.153 697.203 522.809 699.365C513.465 701.527 503.763 701.521 494.421 699.349C490.115 698.711 485.981 697.194 482.267 694.89C478.553 692.585 475.335 689.541 472.808 685.939C470.28 682.338 468.494 678.254 467.559 673.933C466.623 669.612 466.556 665.143 467.362 660.795C468.073 652.808 470.757 645.134 475.162 638.483C479.568 631.832 485.554 626.42 492.565 622.749C505.525 615.821 520.177 612.846 534.76 614.181C544.613 614.835 554.679 616.65 565.175 618.32ZM562.105 640.102C554.031 636.712 545.419 634.842 536.688 634.584C529.433 634.026 522.142 634.99 515.269 637.415C511.55 638.549 508.151 640.57 505.357 643.311C502.562 646.052 500.453 649.432 499.204 653.171C498.096 655.492 497.547 658.049 497.603 660.629C497.658 663.209 498.316 665.738 499.523 668.008C500.73 670.278 502.451 672.224 504.543 673.684C506.635 675.144 509.039 676.077 511.556 676.405C517.294 678.131 523.344 678.505 529.245 677.499C535.147 676.494 540.746 674.134 545.618 670.601C550.49 667.067 554.506 662.451 557.363 657.104C560.219 651.757 561.841 645.818 562.105 639.739V640.102Z" fill="white"/>
<path d="M647.924 561.323H677.91C677.482 564.663 677.196 567.495 676.697 570.326C672.627 593.996 668.415 617.666 664.631 641.408C663.916 646.657 664.134 651.994 665.273 657.164C666.031 660.944 667.944 664.384 670.74 666.992C673.535 669.6 677.069 671.243 680.838 671.685C689.298 673.529 698.131 672.085 705.597 667.637C713.063 663.189 718.621 656.06 721.177 647.653C723.429 639.918 725.146 632.033 726.317 624.055C729.744 604.96 732.886 585.792 736.241 566.696C736.241 564.881 737.098 563.211 737.526 561.396H767.941C760.016 607.138 752.163 652.299 744.309 697.751H714.18C715.108 691.507 715.965 685.553 716.964 678.438L706.54 687.659C700.944 692.602 694.398 696.31 687.32 698.547C680.241 700.784 672.782 701.502 665.416 700.656C660.787 700.545 656.227 699.492 652.005 697.558C647.784 695.625 643.986 692.849 640.837 689.397C637.689 685.945 635.253 681.885 633.674 677.458C632.095 673.032 631.406 668.328 631.646 663.626C631.842 655.992 632.678 648.39 634.144 640.9C638.214 616.286 642.498 591.745 646.782 567.204C647.056 565.224 647.438 563.261 647.924 561.323Z" fill="white"/>
<path d="M881.461 587.607H845.762C845.191 589.785 844.549 591.455 844.263 593.198C840.765 613.673 837.123 634.221 833.696 654.696V656.075C832.483 665.877 836.838 671.323 846.476 671.323C851.441 671.052 856.38 670.421 861.255 669.435C862.969 669.435 864.611 668.636 867.11 668.055C865.682 675.969 864.611 683.23 863.112 690.345C862.866 691.187 862.454 691.968 861.902 692.642C861.35 693.316 860.668 693.869 859.899 694.266C846.684 700.819 831.494 701.937 817.489 697.388C813.145 696.19 809.282 693.63 806.449 690.071C803.617 686.513 801.959 682.138 801.711 677.567C801.187 671.587 801.379 665.565 802.282 659.633C805.78 637.851 809.422 616.069 813.563 594.287C813.92 592.471 813.92 590.656 814.205 588.043H797.713L802.282 561.323L819.274 560.525L825.843 524.221H856.4C854.401 536.492 852.402 548.254 850.26 561.033C862.255 561.468 873.75 561.033 885.959 561.033C884.459 570.326 882.96 578.821 881.461 587.607Z" fill="white"/>
<path d="M118.803 9.36612L99.5977 81.2469H226.826L246.032 9.36612" fill="white"/>
<path d="M93.1724 113.266L0 466.789H122.088L215.26 113.266H93.1724Z" fill="white"/>
<path d="M644.497 119.148C644.497 61.0622 604.658 9.36612 481.927 9.36612H294.94L174.137 466.789H407.175C546.612 466.789 611.512 406.671 611.512 327.602C611.512 280.552 582.953 250.493 543.399 236.117C606.585 220.434 644.497 177.306 644.497 119.148ZM417.028 364.849H322.57L345.06 280.552H431.164C467.791 280.552 486.425 292.968 486.425 316.856C486.425 345.245 460.08 364.849 417.028 364.849ZM368.835 191.682L389.397 111.306H467.148C505.06 111.306 521.124 124.375 521.124 145.286C521.409 173.748 497.349 191.682 453.012 191.682H368.835Z" fill="white"/>
<path d="M871.252 360.928C819.204 360.928 781.292 324.988 781.292 266.54C781.292 186.672 841.051 115.59 915.589 115.59C959.927 115.59 988.199 137.372 1006.19 174.402L1114 115.663C1087.01 45.0888 1023.4 0 931.511 0C758.66 0 650.708 140.494 650.708 275.906C650.708 398.103 738.74 475.865 863.398 475.865C949.074 475.865 1007.98 440.578 1051.67 390.262L967.494 314.46C938.793 343.938 910.52 360.928 871.252 360.928Z" fill="white"/>
</svg>
